<svg xmlns="http://www.w3.org/2000/svg" id="4065c053-fcdb-4ef2-8600-5a97a08f38cf" data-name="Calque 1" viewBox="0 1.6100000143051147 2495.419921875 739.3900146484375" style="box-shadow: none; border-radius: 0px; opacity: 1; display: inline;" preserveAspectRatio="xMidYMid meet" fill="#000000" fill-opacity="1"><title>download-on-the-app-store-apple8</title><path d="M837.92,250a252.37,252.37,0,0,1-28.41-1.45V129.34A215.15,215.15,0,0,1,843,126.82c45.31,0,66.18,22.29,66.18,58.62C909.14,227.36,884.49,250,837.92,250Zm6.64-107.89a79.29,79.29,0,0,0-15.64,1.26V234a102.57,102.57,0,0,0,13.12.54c29.69,0,46.59-16.9,46.59-48.54C888.62,157.76,873.33,142.11,844.55,142.11Zm129.62,108.8c-25.54,0-42.09-19.07-42.09-45,0-27,16.9-46.21,43.54-46.21,25.17,0,42.09,18.16,42.09,44.78,0,27.31-17.44,46.38-43.54,46.38h0Zm0.74-77c-14,0-23,13.12-23,31.46,0,18,9.17,31.11,22.83,31.11s22.83-14,22.83-31.48c0-17.79-9-31.09-22.65-31.09h0Zm188.43-12.4L1136,248.92H1118.2L1106.87,211a287.7,287.7,0,0,1-7-28.22h-0.37a189.11,189.11,0,0,1-7,28.22l-12,37.95h-18l-25.72-87.38h20l9.9,41.54q3.5,14.84,5.93,28.05h0.37c1.43-7.36,3.76-16.55,7.19-27.87l12.42-41.71h15.83l11.88,40.82c2.87,9.89,5.21,19.6,7,28.77h0.52a251.48,251.48,0,0,1,5.93-28.77l10.62-40.82,19.07,0h0ZM1264,248.92h-19.42V198.75c0-15.45-5.93-23.2-17.63-23.2-11.51,0-19.42,9.89-19.42,21.4v52h-19.42v-62.4c0-7.73-.19-16-0.72-25h17.09l0.91,13.49h0.54c5.23-9.34,15.83-15.27,27.71-15.27,18.35,0,30.39,14,30.39,36.85l0,52.32h0Zm53.56,0H1298.1V121.45h19.44V248.92Zm70.82,2c-25.52,0-42.09-19.07-42.09-45,0-27,16.9-46.21,43.52-46.21,25.19,0,42.09,18.16,42.09,44.78,0,27.31-17.44,46.38-43.52,46.38h0Zm0.72-77c-14,0-23,13.12-23,31.46,0,18,9.19,31.11,22.81,31.11s22.83-14,22.83-31.48c0-17.79-9-31.09-22.63-31.09h0Zm119.37,75L1507,238.86h-0.52c-5.93,8.1-14.59,12-25.56,12-15.66,0-26.78-11-26.78-25.72,0-21.57,18.7-32.72,51.08-32.72v-1.61c0-11.51-6.1-17.27-18.14-17.27a40.91,40.91,0,0,0-22.83,6.48l-3.95-12.77c8.08-5,18.16-7.56,30-7.56,22.83,0,34.36,12,34.36,36.15v32.18a132,132,0,0,0,1.26,20.86l-17.51,0h0Zm-2.67-43.52c-21.57,0-32.4,5.23-32.4,17.62,0,9.17,5.58,13.66,13.33,13.66,9.88,0,19.07-7.54,19.07-17.79V205.4ZM1619,248.92l-0.91-14h-0.54c-5.58,10.6-15,16-28.06,16-21.07,0-36.68-18.53-36.68-44.6,0-27.33,16.18-46.58,38.27-46.58,11.69,0,20,3.95,24.65,11.88h0.39V121.45h19.44V225.38c0,8.45.2,16.36,0.72,23.55H1619Zm-2.87-51.42c0-12.23-8.1-22.66-20.46-22.66-14.4,0-23.2,12.77-23.2,30.74,0,17.62,9.14,29.68,22.81,29.68,12.21,0,20.85-10.62,20.85-23.2V197.51h0Zm142.71,53.4c-25.52,0-42.07-19.07-42.07-45,0-27,16.9-46.21,43.52-46.21,25.19,0,42.09,18.16,42.09,44.78,0,27.31-17.42,46.38-43.54,46.38h0Zm0.72-77c-14,0-23,13.12-23,31.46,0,18,9.17,31.11,22.81,31.11s22.83-14,22.83-31.48c0-17.79-9-31.09-22.65-31.09h0Zm147.27,75h-19.44V198.75c0-15.45-5.93-23.2-17.63-23.2-11.51,0-19.4,9.89-19.4,21.4v52h-19.44v-62.4c0-7.73-.19-16-0.72-25h17.09l0.91,13.49h0.54c5.21-9.34,15.83-15.29,27.69-15.29,18.35,0,30.41,14,30.41,36.85v52.34Zm130.68-72.82h-21.37v42.43c0,10.8,3.74,16.19,11.31,16.19a38.27,38.27,0,0,0,8.62-.91l0.54,14.75c-3.76,1.45-8.8,2.17-15.07,2.17-15.31,0-24.46-8.45-24.46-30.57V176.11h-12.75V161.54h12.75v-16l19.07-5.76v21.75h21.37v14.58h0Zm102.82,72.82H2121v-49.8c0-15.64-5.91-23.55-17.63-23.55-10.06,0-19.44,6.84-19.44,20.68v52.68h-19.4V121.45h19.4v52.49h0.39c6.12-9.52,15-14.21,26.28-14.21,18.5,0,29.8,14.38,29.8,37.22v52h0Zm105.34-39h-58.29c0.37,16.55,11.32,25.88,27.54,25.88a65.65,65.65,0,0,0,23.56-4.13l3,13.49c-8.27,3.59-18,5.39-29.32,5.39-27.34,0-43.52-17.27-43.52-44s16.57-46.93,41.33-46.93c22.33,0,36.34,16.55,36.34,41.54a37.42,37.42,0,0,1-.67,8.8h0Zm-17.81-13.84c0-13.49-6.8-23-19.22-23-11.16,0-20,9.71-21.24,23h40.46Z" fill="" style="undefined" fill-opacity=""></path><path d="M994.6,583.75H952.51l-23.06-72.43H849.31l-22,72.43h-41l79.42-246.58h49L994.6,583.75h0ZM922.5,480.94l-20.85-64.39q-3.31-9.87-12.44-46.45h-0.74q-3.67,15.73-11.71,46.45l-20.5,64.39H922.5Zm275.93,11.73q0,45.36-24.65,71.69-22.07,23.43-54.82,23.42-35.33,0-50.78-25.22v93.29h-39.51V464.39q0-28.49-1.46-58.44h34.75l2.21,28.18h0.74q19.77-31.85,60-31.85,31.47,0,52.51,24.87t21,65.52h0Zm-40.25,1.45q0-26-11.71-42.82-12.82-17.54-34.4-17.55a41.1,41.1,0,0,0-26.52,9.69A44.94,44.94,0,0,0,1070,468.88a51.57,51.57,0,0,0-1.83,12v29.66q0,19.37,11.9,32.76T1111,556.68c14.88,0,26.47-5.76,34.75-17.19S1158.17,512.9,1158.17,494.11ZM1403,492.67q0,45.36-24.65,71.69-22.1,23.43-54.84,23.42-35.33,0-50.78-25.22v93.29H1233.2V464.39q0-28.49-1.46-58.44h34.75l2.21,28.18h0.74q19.74-31.85,60-31.85,31.44,0,52.52,24.87t21,65.52h0Zm-40.27,1.45q0-26-11.73-42.82-12.82-17.54-34.36-17.55a41.27,41.27,0,0,0-26.56,9.69,44.92,44.92,0,0,0-15.53,25.44,52.77,52.77,0,0,0-1.85,12v29.66q0,19.37,11.88,32.76c7.93,8.88,18.24,13.36,31,13.36,14.9,0,26.48-5.76,34.75-17.19S1362.71,512.9,1362.71,494.11Zm269,20.47q0,31.49-21.93,51.23-24.07,21.57-67.18,21.59-39.81,0-63.87-15.36l9.14-32.93a110,110,0,0,0,57.08,15.38q22.35,0,34.75-10.06c8.28-6.71,12.47-15.68,12.47-26.87a34.43,34.43,0,0,0-10.27-25.25c-6.84-6.82-18.14-13.17-34-19q-64.77-24.15-64.79-70.63,0-30.35,22.87-49.75t60.57-19.4q33.67,0,56,11.71l-9.92,32.2q-21-11.34-47.39-11.34c-13.94,0-24.87,3.43-32.69,10.25a29.32,29.32,0,0,0-9.92,22.35,30.19,30.19,0,0,0,11.36,24.14q9.84,8.75,35.84,19,31.86,12.84,46.83,30t15.07,42.76h0Zm131-79h-43.55v86.32q0,32.93,23.06,32.91a69.43,69.43,0,0,0,17.55-1.83l1.09,30q-11.68,4.36-30.73,4.37-23.41,0-36.6-14.29t-13.18-47.93V435.53h-25.95V405.88h25.95V373.33l38.81-11.71v44.26h43.55V435.6h0Zm196.12,57.79q0,41-23.43,67.31-24.49,27.1-65.13,27.07-39.2,0-62.4-25.94t-23.24-65.48q0-41.33,24-67.67t64.61-26.35q39.14,0,62.92,26,22.74,25.18,22.7,65.07h0Zm-41,.91q0-24.43-10.58-41.95-12.43-21.18-35.51-21.18c-15.83,0-28,7.06-36.23,21.18q-10.62,17.54-10.6,42.69,0,24.46,10.6,42c8.54,14.12,20.46,21.18,35.9,21.18q22.66,0,35.51-21.53c7.27-12,10.92-26,10.92-42.36h0Zm169.45-53.6a68.77,68.77,0,0,0-12.45-1.09q-20.85,0-32.21,15.75-9.84,13.9-9.86,35.11v93.29h-39.51V461.95q0.05-28-1.15-56h34.42l1.45,34H2029c4.19-11.69,10.75-21.12,19.76-28.18a47.79,47.79,0,0,1,28.56-9.52,63.46,63.46,0,0,1,9.88.72l0,37.69h0ZM2264,486.44a92.63,92.63,0,0,1-1.45,17.92H2144q0.67,26.35,17.2,40.28,15,12.4,38.77,12.41,26.33,0,48-8.39l6.19,27.4q-25.24,11-59.62,11-41.37,0-65-24.31t-23.59-65.29q0-40.19,22-66.93,23-28.52,62.18-28.52,38.45,0,58.21,28.52,15.65,22.6,15.68,55.92h0Zm-37.68-10.25c0.28-11.73-2.32-21.83-7.67-30.37-6.84-11-17.37-16.49-31.47-16.49-12.92,0-23.44,5.35-31.45,16.1-6.58,8.54-10.49,18.81-11.69,30.72l82.29,0h0Z" fill="" style="undefined" fill-opacity=""></path><path d="M2403,1.61H92.42C41.59,1.61,0,43.2,0,94V648.58C0,699.41,41.59,741,92.42,741H2403c50.83,0,92.42-41.59,92.42-92.42V94C2495.45,43.2,2453.86,1.61,2403,1.61Zm77.63,647A77.73,77.73,0,0,1,2403,726.22H92.42a77.73,77.73,0,0,1-77.64-77.64V94A77.72,77.72,0,0,1,92.42,16.39H2403A77.72,77.72,0,0,1,2480.66,94V648.58Z" fill="" style="undefined" fill-opacity=""></path><path d="M558.38,366.6c-0.54-59.72,48.91-88.77,51.17-90.12-28-40.82-71.41-46.4-86.66-46.84-36.46-3.84-71.82,21.81-90.39,21.81-18.94,0-47.54-21.44-78.36-20.81-39.66.61-76.77,23.57-97.12,59.22-42,72.69-10.68,179.5,29.56,238.26,20.13,28.79,43.65,60.9,74.43,59.77,30.12-1.22,41.37-19.18,77.71-19.18,36,0,46.57,19.18,78,18.45,32.32-.5,52.67-28.9,72.1-57.94,23.26-33,32.6-65.46,33-67.13-0.74-.26-62.75-23.94-63.38-95.5h0ZM499.07,191c16.2-20.25,27.28-47.8,24.2-75.76-23.44,1-52.76,16.21-69.65,36-14.94,17.45-28.28,46.06-24.83,73,26.34,2,53.38-13.28,70.28-33.22h0Z" fill="" style="undefined" fill-opacity=""></path></svg>