<svg xmlns="http://www.w3.org/2000/svg" id="b52d2d31-5b9a-4fde-ad93-34f35010cd03" data-name="Calque 1" viewBox="0 0 2495.419921875 739.3799438476562" style="box-shadow: none; border-radius: 0px; opacity: 1; display: inline;" preserveAspectRatio="xMidYMid meet" fill="#000000" fill-opacity="1"><title>download-on-the-play-store-white2</title><path d="M2403,925.68H92.42C41.59,925.68,0,967.27,0,1018.1v554.54c0,50.83,41.59,92.42,92.42,92.42H2403c50.83,0,92.42-41.59,92.42-92.42V1018.1C2495.45,967.27,2453.86,925.68,2403,925.68Zm77.63,647a77.73,77.73,0,0,1-77.63,77.64H92.42a77.73,77.73,0,0,1-77.64-77.64V1018.1a77.72,77.72,0,0,1,77.64-77.64H2403a77.72,77.72,0,0,1,77.63,77.64v554.54Z" transform="translate(0 -925.68)" fill="" style="undefined" fill-opacity=""></path><path d="M876.52,1115q0,23.23-13.77,37-15.65,16.41-40.74,16.41-24,0-40.81-16.64t-16.8-41.28q0-24.64,16.8-41.28T822,1052.59a57.21,57.21,0,0,1,22.76,4.65,45.75,45.75,0,0,1,17.35,12.39l-9.75,9.76q-11-13.16-30.36-13.16a42.15,42.15,0,0,0-30.29,12.31q-12.78,12.32-12.78,32t12.78,32A42.15,42.15,0,0,0,822,1154.82q18.58,0,31-12.38,8-8.07,9.3-22.47H822v-13.32h53.74A47,47,0,0,1,876.52,1115Z" transform="translate(0 -925.68)" fill="" stroke="#fff" stroke-miterlimit="10" stroke-width="3.7" style="undefined" fill-opacity=""></path><path d="M961.72,1068.7H911.21v35.16h45.54v13.32H911.21v35.16h50.51V1166H897V1055.07h64.75v13.63Z" transform="translate(0 -925.68)" fill="" stroke="#fff" stroke-miterlimit="10" stroke-width="3.7" style="undefined" fill-opacity=""></path><path d="M1021.82,1166h-14.26V1068.7h-31v-13.63h76.21v13.63h-31V1166Z" transform="translate(0 -925.68)" fill="" stroke="#fff" stroke-miterlimit="10" stroke-width="3.7" style="undefined" fill-opacity=""></path><path d="M1107.94,1166V1055.07h14.24V1166h-14.24Z" transform="translate(0 -925.68)" fill="" stroke="#fff" stroke-miterlimit="10" stroke-width="3.7" style="undefined" fill-opacity=""></path><path d="M1185.4,1166h-14.26V1068.7h-31v-13.63h76.21v13.63h-31V1166Z" transform="translate(0 -925.68)" fill="" stroke="#fff" stroke-miterlimit="10" stroke-width="3.7" style="undefined" fill-opacity=""></path><path d="M1360.65,1151.65q-16.36,16.82-40.67,16.81t-40.65-16.81q-16.36-16.8-16.34-41.12t16.34-41.12q16.33-16.82,40.65-16.82t40.6,16.89q16.41,16.88,16.41,41Q1377,1134.84,1360.65,1151.65Zm-70.8-9.29a42.64,42.64,0,0,0,60.26,0q12.32-12.47,12.33-31.83t-12.33-31.83a42.64,42.64,0,0,0-60.26,0q-12.29,12.47-12.31,31.83T1289.86,1142.36Z" transform="translate(0 -925.68)" fill="" stroke="#fff" stroke-miterlimit="10" stroke-width="3.7" style="undefined" fill-opacity=""></path><path d="M1397,1166V1055.07h17.35l53.9,86.28h0.61l-0.61-21.37v-64.9h14.26V1166h-14.87l-56.39-90.46h-0.61l0.61,21.37V1166H1397Z" transform="translate(0 -925.68)" fill="" stroke="#fff" stroke-miterlimit="10" stroke-width="3.7" style="undefined" fill-opacity=""></path><path d="M1259.48,1327.75c-43.48,0-78.92,33.05-78.92,78.62,0,45.27,35.44,78.62,78.92,78.62s78.92-33.35,78.92-78.62C1338.39,1360.81,1303,1327.75,1259.48,1327.75Zm0,126.27c-23.82,0-44.37-19.65-44.37-47.65,0-28.29,20.55-47.65,44.37-47.65s44.37,19.36,44.37,47.65C1303.85,1434.36,1283.3,1454,1259.48,1454Zm-172.16-126.27c-43.48,0-78.92,33.05-78.92,78.62,0,45.27,35.44,78.62,78.92,78.62s78.92-33.35,78.92-78.62C1166.24,1360.81,1130.8,1327.75,1087.32,1327.75Zm0,126.27c-23.83,0-44.37-19.65-44.37-47.65,0-28.29,20.55-47.65,44.37-47.65s44.37,19.36,44.37,47.65C1131.69,1434.36,1111.14,1454,1087.32,1454ZM882.53,1351.87v33.35h79.81c-2.38,18.76-8.64,32.46-18.17,42-11.61,11.61-29.78,24.42-61.65,24.42-49.14,0-87.55-39.61-87.55-88.74s38.42-88.74,87.55-88.74c26.51,0,45.86,10.42,60.16,23.82l23.53-23.53c-20-19.06-46.46-33.65-83.68-33.65-67.3,0-123.89,54.8-123.89,122.1S815.23,1485,882.53,1485c36.33,0,63.73-11.91,85.17-34.25,22-22,28.89-53,28.89-78a108.54,108.54,0,0,0-1.79-20.85H882.53ZM1720,1377.78c-6.55-17.57-26.5-50-67.3-50-40.5,0-74.15,31.86-74.15,78.62,0,44.08,33.35,78.62,78,78.62,36,0,56.88-22,65.51-34.84l-26.8-17.87c-8.93,13.1-21.14,21.74-38.71,21.74s-30.08-8-38.12-23.82l105.12-43.48ZM1612.84,1404c-0.89-30.38,23.53-45.86,41.09-45.86,13.7,0,25.31,6.85,29.19,16.68Zm-85.47,76.24h34.54V1249.13h-34.54v231.09Zm-56.58-134.9h-1.19c-7.74-9.23-22.63-17.57-41.39-17.57-39.31,0-75.34,34.54-75.34,78.92,0,44.08,36,78.32,75.34,78.32,18.76,0,33.65-8.34,41.39-17.87h1.19v11.32c0,30.08-16.08,46.16-42,46.16-21.14,0-34.25-15.19-39.61-28l-30.08,12.51c8.64,20.85,31.57,46.46,69.68,46.46,40.5,0,74.75-23.82,74.75-81.9V1332.51h-32.76v12.81ZM1431.18,1454c-23.82,0-43.78-20-43.78-47.35,0-27.69,20-47.94,43.78-47.94,23.53,0,42,20.25,42,47.94C1473.17,1434.06,1454.71,1454,1431.18,1454Zm450.68-204.88h-82.65v231.09h34.49v-87.55h48.16c38.23,0,75.81-27.68,75.81-71.77S1920.1,1249.14,1881.86,1249.14Zm0.89,111.37H1833.7V1281.3h49.05c25.79,0,40.43,21.35,40.43,39.61C1923.18,1338.81,1908.54,1360.51,1882.75,1360.51Zm213.16-33.19c-25,0-50.84,11-61.54,35.38l30.62,12.78c6.54-12.78,18.73-16.95,31.51-16.95,17.84,0,36,10.7,36.27,29.73v2.38c-6.24-3.57-19.62-8.92-36-8.92-33,0-66.59,18.14-66.59,52,0,30.92,27.05,50.84,57.38,50.84,23.19,0,36-10.41,44-22.59h1.19v17.84h33.3v-88.59C2166.07,1350.22,2135.45,1327.33,2095.91,1327.33ZM2091.75,1454c-11.3,0-27.05-5.65-27.05-19.62,0-17.84,19.62-24.68,36.57-24.68,15.16,0,22.3,3.27,31.51,7.73A41.81,41.81,0,0,1,2091.75,1454Zm195.62-121.59-39.54,100.19h-1.19l-41-100.19h-37.16l61.54,140-35.08,77.89h36l94.84-217.92h-38.35ZM1976.7,1480.22h34.49V1249.14H1976.7v231.09Z" transform="translate(0 -925.68)" fill="" style="undefined" fill-opacity=""></path><path d="M499.62,1371.75L231.31,1524.2c-15,8.53-28.43,8-37,.2h0l-1.38,1.38h0l1.37,1.33h0c8.61,7.76,22,8.34,37-.2l270-153.43Z" transform="translate(0 -925.68)" opacity="0.2" style="isolation:isolate"></path><path d="M192.89,1523.07c-5.38-5.69-8.55-14.53-8.55-26v2.7c0,11.45,3.18,20.28,8.55,26l1.38-1.38Z" transform="translate(0 -925.68)" opacity="0.12" style="isolation:isolate"></path><path d="M591.78,1319.38l-92.16,52.37,1.72,1.72,90.44-51.39c12.91-7.34,19.38-17,19.38-26.68h0C610.07,1304.14,603.5,1312.72,591.78,1319.38Z" transform="translate(0 -925.68)" opacity="0.12" style="isolation:isolate"></path><path d="M611.16,1295.39c0-9.67-6.46-19.35-19.38-26.69l-90.45-51.39h0l-270-153.43c-0.13-.07-0.25-0.09-0.38-0.16a50.72,50.72,0,0,0-10.17-4.33c-1.12-.34-2.15-0.45-3.24-0.68a33.68,33.68,0,0,0-6.58-.82,27.85,27.85,0,0,0-3.22.18,24.54,24.54,0,0,0-5.66,1.29,17.81,17.81,0,0,0-7.61,4.5l-0.19-.19-1.37,1.34c-0.08.09-.14,0.21-0.22,0.29-0.4.44-.71,1-1.09,1.46a27.63,27.63,0,0,0-2.93,4.5c-0.4.77-.74,1.59-1.09,2.42a36.82,36.82,0,0,0-1.74,5.4c-0.21.86-.45,1.69-0.62,2.6a51.78,51.78,0,0,0-.87,9.3h0v408.8c0,11.46,3.18,20.28,8.56,26l1.37,1.33,0.21-.21c8.61,7.73,21.84,8.53,36.84,0L499.6,1374.46h0l1.74-1,90.44-51.39c12.93-7.35,19.38-17,19.37-26.72v0Z" transform="translate(0 -925.68)" fill="" style="undefined" fill-opacity=""></path></svg>